<svg xmlns="http://www.w3.org/2000/svg" width="40" height="40" fill="currentColor" viewBox="0 -960 960 960"><path d="m480-444.62-209.69 209.7q-7.23 7.23-17.5 7.42t-17.89-7.42q-7.61-7.62-7.61-17.7 0-10.07 7.61-17.69L444.62-480l-209.7-209.69q-7.23-7.23-7.42-17.5t7.42-17.89q7.62-7.61 17.7-7.61 10.07 0 17.69 7.61L480-515.38l209.69-209.7q7.23-7.23 17.5-7.42t17.89 7.42q7.61 7.62 7.61 17.7 0 10.07-7.61 17.69L515.38-480l209.7 209.69q7.23 7.23 7.42 17.5t-7.42 17.89q-7.62 7.61-17.7 7.61-10.07 0-17.69-7.61z"/></svg>